<?xml version="1.0" encoding="utf-8"?>
<!-- Generator: Adobe Illustrator 19.0.0, SVG Export Plug-In . SVG Version: 6.00 Build 0)  -->
<svg version="1.1" id="图层_1" xmlns="http://www.w3.org/2000/svg" xmlns:xlink="http://www.w3.org/1999/xlink" x="0px" y="0px"
	 viewBox="0 0 110 110" style="enable-background:new 0 0 110 110;" xml:space="preserve">
<style type="text/css">
	.st0{opacity:0.9;}
	.st1{fill:#3BBE7A;}
</style>
<g id="XMLID_2_" class="st0">
	<g id="XMLID_61_">
		<path id="XMLID_62_" class="st1" d="M55,0C24.6,0,0,24.6,0,55c0,30.4,24.6,55,55,55c30.4,0,55-24.6,55-55C110,24.6,85.4,0,55,0z
			 M55,84.9c-16.6,0-30-13.4-30-30c0-16.6,13.4-30,30-30c16.6,0,30,13.4,30,30C85,71.5,71.6,84.9,55,84.9z M59.6,60.5
			c0,0-1.8-0.4-0.9-2.2c1.1-1.4,1.7-3,1.8-3.5c0,0,1.6-1.3,1.7-3.2c0.1-1.9-0.4-2-0.4-2c0.7-2.1,0.9-9.9-4.1-9
			c-0.8-1.6-6.1-2.9-8.6,1.4c-1.2,2.2-1.7,5.1-0.7,7.6c0,0.2-0.3-0.2-0.4,0.9c-0.1,1.1,0.4,2.6,0.9,3.3c0.2,0.3,0.6,0.5,0.9,0.6
			c0,0,0.3,1.9,1.8,3.7c0.3,1.4-1.1,2.2-1.1,2.2c-4.8,0.9-9.1,3.5-9.1,6.4c0,0.2,0,2.2,0,2.2c0,3.1,7.2,3.7,13.7,3.7
			c6.5,0,13.7-1.9,13.7-3.7c0,0,0-2,0-2.2C68.7,64,64.4,61.4,59.6,60.5z M53,71.5c0-3.7,1.6-6.2,1.6-6.2l-1.7-0.9
			c0-0.8,2.1-1.7,2.1-1.7s2,0.9,2,1.7l-1.6,0.9c0,0,1.6,2.5,1.6,6.2C57,72,53,71.9,53,71.5z"/>
	</g>
</g>
</svg>
