<?xml version="1.0" encoding="utf-8"?>
<!-- Generator: Adobe Illustrator 19.0.0, SVG Export Plug-In . SVG Version: 6.00 Build 0)  -->
<svg version="1.1" id="图层_1" xmlns="http://www.w3.org/2000/svg" xmlns:xlink="http://www.w3.org/1999/xlink" x="0px" y="0px"
	 viewBox="-19 9 42 42" style="enable-background:new -19 9 42 42;" xml:space="preserve">
<style type="text/css">
	.st0{fill:#666666;}
</style>
<path id="XMLID_4_" class="st0" d="M2,11c10.5,0,19,8.5,19,19S12.5,49,2,49s-19-8.5-19-19S-8.5,11,2,11 M2,10c-11,0-20,9-20,20
	s9,20,20,20s20-9,20-20S13,10,2,10L2,10z"/>
<g id="XMLID_1_">
	<path id="XMLID_14_" class="st0" d="M6.1,26.3c0.3,0,0.5,0,0.8,0c-0.7-3.3-4.3-5.8-8.3-5.8c-4.5,0-8.2,3.1-8.2,7
		c0,2.3,1.2,4.1,3.3,5.6l-0.8,2.5l2.9-1.4c1,0.2,1.9,0.4,2.9,0.4c0.3,0,0.5,0,0.8,0c-0.2-0.6-0.3-1.1-0.3-1.7
		C-0.9,29.2,2.2,26.3,6.1,26.3z M1.7,24c0.6,0,1,0.4,1,1s-0.4,1-1,1s-1.2-0.4-1.2-1S1.1,24,1.7,24z M-4.1,26.1c-0.6,0-1.2-0.4-1.2-1
		s0.6-1,1.2-1c0.6,0,1,0.4,1,1C-3,25.7-3.5,26.1-4.1,26.1z"/>
	<path id="XMLID_18_" class="st0" d="M13.6,32.7c0-3.3-3.3-6-7-6c-3.9,0-7,2.7-7,6s3.1,6,7,6c0.8,0,1.6-0.2,2.5-0.4l2.3,1.2
		l-0.6-2.1C12.4,36.2,13.6,34.5,13.6,32.7z M4.4,31.6c-0.4,0-0.8-0.4-0.8-0.8S4,30,4.4,30c0.6,0,1,0.4,1,0.8S5,31.6,4.4,31.6z
		 M8.9,31.6c-0.4,0-0.8-0.4-0.8-0.8S8.5,30,8.9,30c0.6,0,1,0.4,1,0.8S9.5,31.6,8.9,31.6z"/>
</g>
</svg>
