<?xml version="1.0" encoding="utf-8"?>
<!-- Generator: Adobe Illustrator 19.0.0, SVG Export Plug-In . SVG Version: 6.00 Build 0)  -->
<svg version="1.1" id="图层_1" xmlns="http://www.w3.org/2000/svg" xmlns:xlink="http://www.w3.org/1999/xlink" x="0px" y="0px"
	 viewBox="0 0 110 110" style="enable-background:new 0 0 110 110;" xml:space="preserve">
<style type="text/css">
	.st0{opacity:0.9;}
	.st1{fill-rule:evenodd;clip-rule:evenodd;fill:#3BBE7A;}
</style>
<g class="st0">
	<path class="st1" d="M55,110C24.6,110,0,85.4,0,55C0,24.6,24.6,0,55,0c30.4,0,55,24.6,55,55C110,85.4,85.4,110,55,110z M55,24.9
		c-16.6,0-30,13.4-30,30c0,16.6,13.4,30,30,30s30-13.4,30-30C85,38.3,71.6,24.9,55,24.9z M54.9,72c-0.8,0-1.7-1.1-1.7-1.1
		c0-6.7-7.4-15.7-7.4-20.7c0-5,4.1-9.1,9.1-9.1c5,0,9.1,4.1,9.1,9.1c0,4.6-7.3,14-7.3,20.7C56.7,71,55.8,72,54.9,72z M58.8,50.3
		c0-2.2-1.8-4-4-4s-4,1.8-4,4c0,2.2,1.8,4,4,4S58.8,52.5,58.8,50.3z"/>
</g>
</svg>
