<?xml version="1.0" encoding="utf-8"?>
<!-- Generator: Adobe Illustrator 19.0.0, SVG Export Plug-In . SVG Version: 6.00 Build 0)  -->
<svg version="1.1" id="图层_1" xmlns="http://www.w3.org/2000/svg" xmlns:xlink="http://www.w3.org/1999/xlink" x="0px" y="0px"
	 viewBox="0 0 110 110" style="enable-background:new 0 0 110 110;" xml:space="preserve">
<style type="text/css">
	.st0{opacity:0.9;}
	.st1{fill-rule:evenodd;clip-rule:evenodd;fill:#3BBE7A;}
</style>
<g class="st0">
	<path class="st1" d="M55,110C24.6,110,0,85.4,0,55C0,24.6,24.6,0,55,0c30.4,0,55,24.6,55,55C110,85.4,85.4,110,55,110z M55,24.9
		c-16.6,0-30,13.4-30,30c0,16.6,13.4,30,30,30c16.6,0,30-13.4,30-30C85,38.3,71.6,24.9,55,24.9z M62.3,65.4c-2.6,0-5-0.9-6.8-2.5
		c-1.8,1.5-4.2,2.5-6.8,2.5c-5.9,0-10.6-4.8-10.6-10.6c0-5.9,4.8-10.6,10.6-10.6c2.6,0,5,0.9,6.8,2.5c1.8-1.5,4.2-2.5,6.8-2.5
		c5.9,0,10.6,4.8,10.6,10.6C72.9,60.6,68.1,65.4,62.3,65.4z M62.3,46.8c-1.9,0-3.6,0.7-5,1.8c1.2,1.7,2,3.9,2,6.2s-0.7,4.4-2,6.2
		c1.4,1.1,3.1,1.8,5,1.8c4.4,0,7.9-3.5,7.9-7.9C70.2,50.4,66.6,46.8,62.3,46.8z"/>
</g>
</svg>
