<?xml version="1.0" encoding="utf-8"?>
<!-- Generator: Adobe Illustrator 19.0.0, SVG Export Plug-In . SVG Version: 6.00 Build 0)  -->
<svg version="1.1" id="图层_1" xmlns="http://www.w3.org/2000/svg" xmlns:xlink="http://www.w3.org/1999/xlink" x="0px" y="0px"
	 viewBox="-276 399.9 42 42" style="enable-background:new -276 399.9 42 42;" xml:space="preserve">
<style type="text/css">
	.st0{fill:#666666;}
	.st1{fill-rule:evenodd;clip-rule:evenodd;fill:#666666;}
</style>
<path id="XMLID_4_" class="st0" d="M-255,401.9c10.5,0,19,8.5,19,19s-8.5,19-19,19s-19-8.5-19-19S-265.5,401.9-255,401.9
	 M-255,400.9c-11,0-20,9-20,20s9,20,20,20s20-9,20-20S-244,400.9-255,400.9L-255,400.9z"/>
<g>
	<path class="st0" d="M-250.8,411.9c0.5,0,0.8,0.4,0.8,0.8v16.3c0,0.5-0.4,0.8-0.8,0.8h-8.3c-0.5,0-0.8-0.4-0.8-0.8v-16.3
		c0-0.5,0.4-0.8,0.8-0.8H-250.8 M-250.8,409.9h-8.3c-1.6,0-2.8,1.3-2.8,2.8v16.3c0,1.6,1.3,2.8,2.8,2.8h8.3c1.6,0,2.8-1.3,2.8-2.8
		v-16.3C-248,411.2-249.3,409.9-250.8,409.9L-250.8,409.9z"/>
</g>
<path class="st1" d="M-260.1,425.3v4.6h10.2v-4.6H-260.1z M-254.9,429.1c-0.6,0-1-0.4-1-1c0-0.6,0.4-1,1-1s1,0.4,1,1
	C-253.9,428.7-254.3,429.1-254.9,429.1z"/>
</svg>
